<svg width="42" height="42" viewBox="0 0 42 42" fill="none" xmlns="http://www.w3.org/2000/svg">
<g clip-path="url(#clip0_199_6956)">
<path d="M16.378 38.6311C16.378 38.9933 16.0903 39.2903 15.728 39.2903C15.3658 39.2903 15.0688 38.9933 15.0688 38.6311V30.3755C15.0688 29.8186 15.31 29.3169 15.7001 28.955C16.0811 28.6023 16.592 28.3887 17.1583 28.3887H24.8378C25.4041 28.3887 25.9242 28.602 26.2953 28.955C26.6851 29.3173 26.9273 29.8186 26.9273 30.3755V38.6311C26.9273 38.9933 26.6392 39.2903 26.2769 39.2903C25.9147 39.2903 25.6177 38.9933 25.6177 38.6311V30.3755C25.6177 30.1993 25.5432 30.0319 25.4133 29.9115C25.265 29.7816 25.0697 29.6979 24.8378 29.6979H21.6523V38.6314C21.6523 38.9937 21.3649 39.2906 21.0026 39.2906C20.6407 39.2906 20.3434 38.9937 20.3434 38.6314V29.6976H17.1583C16.9355 29.6976 16.7403 29.7816 16.592 29.9112C16.462 30.0316 16.3784 30.1989 16.3784 30.3751L16.378 38.6311Z" fill="#768286"/>
<path d="M14.5304 19.5851H18.8203C19.1825 19.5851 19.4703 19.8732 19.4703 20.2352V24.2284C19.4703 24.5907 19.1825 24.8778 18.8203 24.8778H14.5304C14.1681 24.8778 13.8804 24.5904 13.8804 24.2284V20.2352C13.88 19.8732 14.1681 19.5851 14.5304 19.5851ZM14.5304 11.6455H18.8203C19.1825 11.6455 19.4703 11.9336 19.4703 12.2955V16.2885C19.4703 16.6507 19.1825 16.9385 18.8203 16.9385H14.5304C14.1681 16.9385 13.8804 16.6504 13.8804 16.2885V12.2959C13.88 11.9336 14.1681 11.6455 14.5304 11.6455ZM18.1611 12.9554H15.1896V15.6293H18.1611V12.9554ZM25.3296 15.6293C25.6919 15.6293 25.9793 15.9266 25.9793 16.2888C25.9793 16.6511 25.6916 16.9388 25.3296 16.9388H23.1847C22.8224 16.9388 22.5252 16.6507 22.5252 16.2888V12.2959C22.5252 11.9336 22.8221 11.6458 23.1847 11.6458C23.5469 11.6458 23.8347 11.9339 23.8347 12.2959V15.6293H25.3296ZM23.1847 19.5851H27.4654C27.8277 19.5851 28.1246 19.8732 28.1246 20.2352V24.2284C28.1246 24.5907 27.8277 24.8778 27.4654 24.8778H23.1847C22.8224 24.8778 22.5252 24.5904 22.5252 24.2284V20.2352C22.5252 19.8732 22.8224 19.5851 23.1847 19.5851ZM26.8157 20.8947H23.835V23.5689H26.8157V20.8947ZM18.1611 20.8947H15.1896V23.5689H18.1611V20.8947Z" fill="#768286"/>
<path d="M32.0339 20.1149C31.8485 20.4213 31.4495 20.5326 31.1427 20.3469C31.0403 20.2819 30.957 20.1985 30.9012 20.1057L25.2738 10.5687C24.9857 10.0765 24.7446 9.44523 24.5963 8.88808C24.4473 8.31222 24.3731 7.71831 24.3731 7.10504C24.3731 5.14548 25.1626 3.37229 26.4531 2.08112C27.7348 0.800121 29.5083 0.00146484 31.477 0.00146484C33.4363 0.00146484 35.2098 0.800121 36.5006 2.08145C37.782 3.37262 38.5809 5.14581 38.5809 7.10537C38.5809 7.71831 38.4973 8.31254 38.349 8.8884C38.2 9.48297 37.9677 10.0398 37.6802 10.5599L32.0339 20.1149ZM31.477 18.4989L36.5469 9.9092C36.7792 9.4915 36.9649 9.03639 37.0857 8.5629C37.2061 8.09828 37.2711 7.61561 37.2711 7.10504C37.2711 5.50773 36.6217 4.05939 35.572 3.01004C34.5227 1.96103 33.074 1.31068 31.477 1.31068C29.8705 1.31068 28.4219 1.9607 27.3729 3.01004C26.3324 4.05939 25.6827 5.50773 25.6827 7.10504C25.6827 7.61593 25.7473 8.09828 25.8592 8.5629C25.9796 9.02687 26.1654 9.47279 26.3882 9.8905L31.477 18.4989Z" fill="#ED2A28"/>
<path d="M31.477 3.31641C32.5172 3.31641 33.4642 3.74395 34.1509 4.43072C34.8384 5.10862 35.2656 6.05559 35.2656 7.10494C35.2656 8.15395 34.838 9.10158 34.1509 9.78867C33.4638 10.4666 32.5172 10.8935 31.477 10.8935C30.4277 10.8935 29.4804 10.4666 28.7933 9.78867C28.1062 9.10158 27.6885 8.15428 27.6885 7.10494C27.6885 6.05559 28.1062 5.10862 28.7933 4.43072C29.4804 3.74362 30.4274 3.31641 31.477 3.31641ZM33.2227 5.35013C32.7767 4.90453 32.1549 4.62595 31.477 4.62595C30.7899 4.62595 30.1675 4.90453 29.7219 5.35013C29.276 5.80523 28.9977 6.41784 28.9977 7.10527C28.9977 7.79236 29.276 8.41448 29.7219 8.86041C30.1672 9.306 30.7899 9.58458 31.477 9.58458C32.1549 9.58458 32.7767 9.306 33.2227 8.86041C33.6774 8.41481 33.956 7.79236 33.956 7.10527C33.956 6.41784 33.6774 5.80523 33.2227 5.35013Z" fill="#ED2A28"/>
<path d="M34.5037 31.8984C34.1414 31.8984 33.8543 31.6015 33.8543 31.2392C33.8543 30.877 34.1417 30.5889 34.5037 30.5889H36.8809C37.6983 30.5889 38.4228 31.0627 38.7384 31.8147L41.812 39.2993C41.9419 39.6149 41.9882 39.9309 41.9511 40.2466C41.8861 40.8874 41.4586 41.4813 40.8923 41.7786C40.6045 41.9272 40.2888 42.0017 39.9548 42.0017H2.05014C1.71578 42.0017 1.40012 41.9272 1.11236 41.7786C0.536498 41.4813 0.118795 40.8874 0.0446389 40.2466C0.0167483 39.9309 0.0630139 39.6149 0.183764 39.2993L3.26683 31.8147C3.58248 31.0627 4.30665 30.5889 5.12401 30.5889H7.48257C7.84482 30.5889 8.13259 30.8773 8.13259 31.2392C8.13259 31.6011 7.84482 31.8984 7.48257 31.8984H5.12401C4.83625 31.8984 4.58523 32.0375 4.474 32.3161L1.40045 39.8003C1.35386 39.903 1.33548 40.0047 1.34467 40.1071C1.37256 40.3207 1.5212 40.5156 1.70692 40.618C1.80897 40.6646 1.9202 40.6925 2.05047 40.6925H39.9555C40.0854 40.6925 40.1966 40.6646 40.2898 40.618C40.4851 40.5156 40.6334 40.3211 40.6521 40.1071C40.6613 40.0047 40.6521 39.903 40.6055 39.8003L37.5319 32.3161C37.4204 32.0372 37.1697 31.8984 36.8819 31.8984H34.5037Z" fill="#768286"/>
<path d="M30.8179 22.9283C30.8179 22.566 31.1148 22.2687 31.4771 22.2687C31.8393 22.2687 32.1271 22.566 32.1271 22.9283V38.6307C32.1271 38.9929 31.839 39.2899 31.4771 39.2899H10.5279C10.1657 39.2899 9.8779 38.9929 9.8779 38.6307V9.92828C9.8779 9.37113 10.1194 8.86942 10.5095 8.5075C10.881 8.15444 11.4011 7.93164 11.9674 7.93164H22.3024C22.6646 7.93164 22.9524 8.22859 22.9524 8.59117C22.9524 8.95342 22.6643 9.25038 22.3024 9.25038H11.9674C11.7351 9.25038 11.5402 9.32486 11.3919 9.46398C11.2619 9.58441 11.1874 9.75175 11.1874 9.92828V37.9804H30.8182L30.8179 22.9283Z" fill="#768286"/>
</g>
<defs>
<clipPath id="clip0_199_6956">
<rect width="42" height="42" fill="white" transform="translate(0 0.00146484)"/>
</clipPath>
</defs>
</svg>
